<?xml version="1.0" standalone="no"?>
<!DOCTYPE svg PUBLIC "-//W3C//DTD SVG 20010904//EN"
 "http://www.w3.org/TR/2001/REC-SVG-20010904/DTD/svg10.dtd">
<svg version="1.0" xmlns="http://www.w3.org/2000/svg"
 width="16.000000pt" height="16.000000pt" viewBox="0 0 16.000000 16.000000"
 preserveAspectRatio="xMidYMid meet">
<metadata>
Created by potrace 1.11, written by Peter Selinger 2001-2013
</metadata>
<g transform="translate(0.000000,16.000000) scale(0.002286,-0.002286)"
fill="#000000" stroke="none">
<path d="M3424 6981 c-30 -14 -519 -496 -1722 -1698 -1504 -1503 -1681 -1683
-1691 -1721 -14 -49 -9 -109 12 -149 19 -36 296 -312 333 -331 42 -22 122 -20
166 3 22 11 653 634 1450 1432 1406 1404 1413 1411 1470 1428 69 20 112 13
170 -26 24 -16 210 -196 413 -401 394 -396 405 -410 400 -496 -1 -23 -12 -58
-23 -80 -12 -23 -434 -452 -1046 -1065 -724 -723 -1031 -1037 -1042 -1063 -20
-48 -20 -113 0 -156 23 -47 297 -319 343 -340 48 -22 108 -22 156 0 25 11 378
357 1060 1039 1050 1049 1076 1073 1148 1073 32 0 98 -19 117 -33 55 -42 768
-760 788 -794 35 -58 39 -127 11 -183 -15 -31 -332 -353 -1050 -1071 -744
-744 -1031 -1037 -1043 -1065 -20 -47 -20 -108 0 -154 20 -48 301 -325 348
-345 49 -20 104 -19 151 3 54 25 2613 2582 2638 2637 21 46 23 84 8 140 -10
34 -239 268 -1690 1717 -924 923 -1693 1685 -1710 1693 -49 26 -118 29 -165 6z"/>
<path d="M3445 5457 c-35 -8 -188 -157 -1339 -1306 -900 -899 -1304 -1308
-1317 -1336 -22 -48 -24 -113 -5 -160 9 -22 470 -489 1308 -1326 985 -984
1303 -1297 1336 -1311 60 -27 127 -19 184 20 75 53 304 296 318 337 15 47 7
125 -17 162 -10 15 -131 140 -268 278 -138 137 -261 267 -273 287 -34 55 -39
123 -13 179 17 35 262 286 1046 1070 728 728 1031 1037 1046 1067 29 59 22
138 -16 188 -42 55 -286 294 -316 309 -36 19 -94 24 -143 12 -37 -9 -154 -123
-1081 -1047 -778 -776 -1050 -1042 -1080 -1055 -56 -23 -114 -21 -163 4 -27
14 -181 160 -420 399 -392 392 -422 428 -422 504 0 87 -12 73 1064 1148 735
734 1032 1037 1048 1068 26 54 21 136 -11 181 -33 46 -293 301 -324 317 -36
19 -92 23 -142 11z"/>
</g>
</svg>
